<?xml version="1.0" standalone="no"?>
<svg xmlns:xlink="http://www.w3.org/1999/xlink" id="wave" style="transform:rotate(0deg); transition: 0.3s" viewBox="0 0 1440 100" version="1.1" xmlns="http://www.w3.org/2000/svg"><defs><linearGradient id="sw-gradient-0" x1="0" x2="0" y1="1" y2="0"><stop stop-color="rgba(36, 37, 42, 1)" offset="0%"/><stop stop-color="rgba(36, 37, 42, 1)" offset="100%"/></linearGradient></defs><path style="transform:translate(0, 0px); opacity:1" fill="url(#sw-gradient-0)" d="M0,10L34.3,11.7C68.6,13,137,17,206,15C274.3,13,343,7,411,15C480,23,549,47,617,60C685.7,73,754,77,823,70C891.4,63,960,47,1029,33.3C1097.1,20,1166,10,1234,10C1302.9,10,1371,20,1440,23.3C1508.6,27,1577,23,1646,33.3C1714.3,43,1783,67,1851,70C1920,73,1989,57,2057,41.7C2125.7,27,2194,13,2263,16.7C2331.4,20,2400,40,2469,51.7C2537.1,63,2606,67,2674,66.7C2742.9,67,2811,63,2880,61.7C2948.6,60,3017,60,3086,61.7C3154.3,63,3223,67,3291,66.7C3360,67,3429,63,3497,56.7C3565.7,50,3634,40,3703,38.3C3771.4,37,3840,43,3909,46.7C3977.1,50,4046,50,4114,55C4182.9,60,4251,70,4320,71.7C4388.6,73,4457,67,4526,53.3C4594.3,40,4663,20,4731,13.3C4800,7,4869,13,4903,16.7L4937.1,20L4937.1,100L4902.9,100C4868.6,100,4800,100,4731,100C4662.9,100,4594,100,4526,100C4457.1,100,4389,100,4320,100C4251.4,100,4183,100,4114,100C4045.7,100,3977,100,3909,100C3840,100,3771,100,3703,100C3634.3,100,3566,100,3497,100C3428.6,100,3360,100,3291,100C3222.9,100,3154,100,3086,100C3017.1,100,2949,100,2880,100C2811.4,100,2743,100,2674,100C2605.7,100,2537,100,2469,100C2400,100,2331,100,2263,100C2194.3,100,2126,100,2057,100C1988.6,100,1920,100,1851,100C1782.9,100,1714,100,1646,100C1577.1,100,1509,100,1440,100C1371.4,100,1303,100,1234,100C1165.7,100,1097,100,1029,100C960,100,891,100,823,100C754.3,100,686,100,617,100C548.6,100,480,100,411,100C342.9,100,274,100,206,100C137.1,100,69,100,34,100L0,100Z"/></svg>